<svg width="25" height="31" viewBox="0 0 25 31" fill="none" xmlns="http://www.w3.org/2000/svg">
<path d="M20.7062 28.955C19.1137 30.4988 17.375 30.255 15.7012 29.5238C13.93 28.7763 12.305 28.7438 10.4362 29.5238C8.09624 30.5313 6.86124 30.2388 5.46374 28.955C-2.46626 20.7813 -1.29626 8.33375 7.70624 7.87875C9.89999 7.9925 11.4275 9.08125 12.7112 9.17875C14.6287 8.78875 16.465 7.6675 18.5125 7.81375C20.9662 8.00875 22.8187 8.98375 24.0375 10.7388C18.9675 13.7775 20.17 20.4563 24.8175 22.325C23.8912 24.7625 22.6887 27.1838 20.69 28.9713L20.7062 28.955ZM12.5487 7.78125C12.305 4.1575 15.2462 1.1675 18.6262 0.875C19.0975 5.0675 14.8237 8.1875 12.5487 7.78125Z" fill="#F5F5F5"/>
</svg>
