<svg width="32" height="33" viewBox="0 0 32 33" fill="none" xmlns="http://www.w3.org/2000/svg">
<path d="M31.6937 15.0375H16.7925V19.4738H27.3712C26.835 25.665 21.6837 28.3138 16.8087 28.3138C10.585 28.3138 5.12499 23.4063 5.12499 16.5C5.12499 9.8375 10.325 4.68625 16.825 4.68625C21.8462 4.68625 24.7875 7.8875 24.7875 7.8875L27.875 4.67C27.875 4.67 23.91 0.25 16.6625 0.25C7.43249 0.25 0.298737 8.05 0.298737 16.5C0.298737 24.7063 7.00999 32.75 16.9062 32.75C25.6 32.75 31.9375 26.7863 31.9375 17.9788C31.9375 16.11 31.6937 15.0375 31.6937 15.0375Z" fill="#F5F5F5"/>
</svg>
