<svg width="35" height="35" viewBox="0 0 35 35" fill="none" xmlns="http://www.w3.org/2000/svg">
<path d="M17.5 0.5C19.7543 0.5 21.9163 1.39553 23.5104 2.98959C25.1045 4.58365 26 6.74566 26 9C26 11.2543 25.1045 13.4163 23.5104 15.0104C21.9163 16.6045 19.7543 17.5 17.5 17.5C15.2457 17.5 13.0837 16.6045 11.4896 15.0104C9.89553 13.4163 9 11.2543 9 9C9 6.74566 9.89553 4.58365 11.4896 2.98959C13.0837 1.39553 15.2457 0.5 17.5 0.5ZM17.5 21.75C26.8925 21.75 34.5 25.5537 34.5 30.25V34.5H0.5V30.25C0.5 25.5537 8.1075 21.75 17.5 21.75Z" fill="black"/>
</svg>
